<svg xmlns="http://www.w3.org/2000/svg" fill="none" viewBox="0 0 36 20"><rect fill="#EEF2F8" rx="2" height="20" width="36"/><rect stroke-opacity=".58" stroke="#DBE0E8" rx="1.5" height="19" width="35" y=".5" x=".5"/><rect stroke="#fff" rx=".5" height="13" width="29" y="3.5" x="3.5" opacity=".1"/><g opacity=".4"><mask height="20" width="36" y="0" x="0" maskUnits="userSpaceOnUse" style="mask-type:alpha" id="b"><rect fill="url(#a)" rx="2" height="20" width="36"/></mask><g mask="url(#b)"><path fill="url(#c)" d="M8.47 25.5 29.119-5l12.767-1.333-.492 34.222L8.47 25.5Z"/></g></g><path stroke-linecap="round" stroke="#CAD2DB" d="M4 2H2.1a.1.1 0 0 0-.1.1V4M32 2h1.9a.1.1 0 0 1 .1.1V4M4 18H2.1a.1.1 0 0 1-.1-.1V16M32 18h1.9a.1.1 0 0 0 .1-.1V16" opacity=".7"/><path fill="#6D727D" d="M11.664 5.972c.24-.492.492-1.164.624-1.584l-.996-.168a10.309 10.309 0 0 1-.708 1.752H7.752V15.2h.888v-.756h6.444v.732h.888V5.972h-4.308ZM8.64 9.692V6.836h6.444v2.856H8.64Zm6.444.864v3.012H8.64v-3.012h6.444Zm11.393 1.776V11l-.852-.048v1.38H23.56c.852-.492 1.476-1.056 1.895-1.716h2.857V5.528h-2.616c.143-.3.276-.648.408-1.02l-.817-.228a5.91 5.91 0 0 1-.503 1.248h-1.86v5.088h1.631c-.396.468-.96.876-1.704 1.236l.372.48h-1.008v.768h3.409v2.112h.852V13.1h2.604v-.768h-2.604ZM19.972 8.84h2.569V8h-.768V4.748l-.817-.036V8h-.983V4.94l-.816-.036v5.1c0 .924-.073 1.776-.229 2.544a9.931 9.931 0 0 1-.84 2.376l.828.312c.552-1.188.889-2.568 1.02-4.128h1.116v4.056h.84v-4.908h-1.92V8.84Zm3.732-1.08V6.284h1.537V7.76h-1.537Zm2.316-1.476h1.489V7.76H26.02V6.284Zm-2.316 2.232h1.537c-.012.54-.096.984-.229 1.332h-1.308V8.516Zm2.113 1.332a3.99 3.99 0 0 0 .203-1.308v-.024h1.489v1.332h-1.692Z"/><defs><linearGradient gradientUnits="userSpaceOnUse" y2="13.238" x2="31.736" y1="-5" x1="5.442" id="a"><stop stop-color="#54ACFF"/><stop stop-color="#0084FF" offset="1"/></linearGradient><linearGradient gradientUnits="userSpaceOnUse" y2="14.77" x2="13.003" y1="-18.389" x1="31.789" id="c"><stop stop-opacity=".85" stop-color="#7F96B1"/><stop stop-opacity=".06" stop-color="#fff" offset="1"/></linearGradient></defs></svg>