<svg width="45" height="25" viewBox="0 0 45 25" fill="none" xmlns="http://www.w3.org/2000/svg">
<g id="Group 1516">
<g id="Group 155">
<g id="Rectangle 582">
<rect width="45" height="25" rx="2.5" fill="#F53636"/>
<rect x="0.625" y="0.625" width="43.75" height="23.75" rx="1.875" stroke="#FF9696" stroke-opacity="0.4" stroke-width="1.25"/>
</g>
<rect id="Rectangle 583" opacity="0.1" x="4.375" y="4.375" width="36.25" height="16.25" rx="0.625" stroke="white" stroke-width="1.25"/>
</g>
<g id="Mask group" opacity="0.4">
<mask id="mask0_388_1208" style="mask-type:alpha" maskUnits="userSpaceOnUse" x="0" y="0" width="45" height="25">
<rect id="Rectangle 584" width="45" height="25" rx="2.5" fill="url(#paint0_linear_388_1208)"/>
</mask>
<g mask="url(#mask0_388_1208)">
<path id="Vector 47" d="M10.5884 31.8753L36.3972 -6.24969L52.3564 -7.91626L51.7408 34.8615L10.5884 31.8753Z" fill="url(#paint1_linear_388_1208)"/>
</g>
</g>
<path id="Vector 128" opacity="0.7" d="M5 2.5H2.625C2.55596 2.5 2.5 2.55596 2.5 2.625V5" stroke="white" stroke-width="1.25" stroke-linecap="round"/>
<path id="Vector 129" opacity="0.7" d="M40 2.5H42.375C42.444 2.5 42.5 2.55596 42.5 2.625V5" stroke="white" stroke-width="1.25" stroke-linecap="round"/>
<path id="Vector 130" opacity="0.7" d="M5 22.5H2.625C2.55596 22.5 2.5 22.444 2.5 22.375V20" stroke="white" stroke-width="1.25" stroke-linecap="round"/>
<path id="Vector 131" opacity="0.7" d="M40 22.5H42.375C42.444 22.5 42.5 22.444 42.5 22.375V20" stroke="white" stroke-width="1.25" stroke-linecap="round"/>
<g id="&#231;&#186;&#162;&#231;&#137;&#140;">
<path id="Vector" d="M33.0954 15.4151H36.3504V16.3751H33.0954V19.0151H32.0304V16.3751H27.7704V15.4151H29.0304L28.5654 14.8151C29.4954 14.3651 30.2004 13.8551 30.6954 13.2701H28.6554V6.9101H30.9804C31.2504 6.4151 31.4604 5.8901 31.6104 5.3501L32.6304 5.6351C32.4654 6.1001 32.3004 6.5351 32.1204 6.9101H35.3904V13.2701H31.8204C31.2954 14.0951 30.5154 14.8001 29.4504 15.4151H32.0304V13.6901L33.0954 13.7501V15.4151ZM24.9654 11.0501V12.5051V12.8201H27.3654V18.9551H26.3154V13.8851H24.9204C24.7554 15.8351 24.3354 17.5601 23.6454 19.0451L22.6104 18.6551C23.1204 17.6201 23.4654 16.6301 23.6604 15.6851C23.8554 14.7251 23.9454 13.6601 23.9454 12.5051V6.1301L24.9654 6.1751V10.0001H26.1954V5.8901L27.2154 5.9351V10.0001H28.1754V11.0501H24.9654ZM29.6304 9.7001H31.5504V7.8551H29.6304V9.7001ZM32.5254 7.8551V9.7001H34.3854V7.8551H32.5254ZM29.6304 10.6451V12.3101H31.2654C31.4304 11.8751 31.5354 11.3201 31.5504 10.6451H29.6304ZM32.2704 12.3101H34.3854V10.6451H32.5254V10.6751C32.5254 11.2901 32.4354 11.8301 32.2704 12.3101Z" fill="white"/>
<path id="Vector_2" d="M8.53502 10.9901L8.32502 9.94011C8.64002 9.82011 8.74502 9.74511 8.92502 9.56511C9.24002 9.22011 9.64502 8.65011 10.14 7.82511C10.65 7.00011 11.07 6.22011 11.415 5.48511L12.405 6.01011C12.075 6.68511 11.685 7.39011 11.22 8.12511C10.77 8.86011 10.38 9.43011 10.05 9.82011C10.95 9.79011 11.67 9.76011 12.195 9.71511L13.14 8.18511L14.04 8.77011C13.665 9.44511 13.185 10.2251 12.6 11.0801C12.03 11.9351 11.43 12.7301 10.815 13.4801L12.915 13.1801L13.71 13.0751L13.74 14.1851C13.29 14.2301 12.615 14.3201 11.73 14.4401C10.845 14.5451 10.275 14.6351 10.05 14.6801C9.61502 14.7401 9.22502 14.8001 8.91002 14.8751L8.68502 13.7951C9.18002 13.6301 9.42002 13.5101 9.67502 13.2101C10.095 12.7451 10.71 11.9201 11.505 10.7501C10.665 10.7951 9.76502 10.8401 9.28502 10.8851C9.01502 10.9001 8.76002 10.9451 8.53502 10.9901ZM20.985 8.06511H18.015V17.4101H21.57V18.4751H13.35V17.4101H16.815V8.06511H13.95V6.92511H20.985V8.06511ZM13.695 15.6851L13.74 16.2401L13.77 16.8401C13.155 17.0051 12.255 17.2001 11.1 17.4251C9.94502 17.6501 9.01502 17.8301 8.29502 17.9501L8.14502 16.8401C8.88002 16.7201 9.84002 16.5401 10.995 16.3001C12.15 16.0601 13.05 15.8501 13.695 15.6851Z" fill="white"/>
</g>
</g>
<defs>
<linearGradient id="paint0_linear_388_1208" x1="6.80233" y1="-6.25" x2="39.6696" y2="16.5477" gradientUnits="userSpaceOnUse">
<stop stop-color="#54ACFF"/>
<stop offset="1" stop-color="#0084FF"/>
</linearGradient>
<linearGradient id="paint1_linear_388_1208" x1="39.7367" y1="-22.9857" x2="16.2541" y2="18.4621" gradientUnits="userSpaceOnUse">
<stop stop-color="#FF6363" stop-opacity="0.85"/>
<stop offset="1" stop-color="white" stop-opacity="0.06"/>
</linearGradient>
</defs>
</svg>
