<svg xmlns="http://www.w3.org/2000/svg" fill="none" viewBox="0 0 36 20"><rect fill="#FFBB0E" rx="2" height="20" width="36"/><rect stroke-opacity=".4" stroke="#FFE896" rx="1.5" height="19" width="35" y=".5" x=".5"/><rect stroke="#fff" rx=".5" height="13" width="29" y="3.5" x="3.5" opacity=".1"/><g opacity=".4"><mask height="20" width="36" y="0" x="0" maskUnits="userSpaceOnUse" style="mask-type:alpha" id="b"><rect fill="url(#a)" rx="2" height="20" width="36"/></mask><g mask="url(#b)"><path fill="url(#c)" d="M8.47 25.5 29.119-5l12.767-1.333-.492 34.222L8.47 25.5Z"/></g></g><path stroke-linecap="round" stroke="#fff" d="M4 2H2.1a.1.1 0 0 0-.1.1V4M32 2h1.9a.1.1 0 0 1 .1.1V4M4 18H2.1a.1.1 0 0 1-.1-.1V16M32 18h1.9a.1.1 0 0 0 .1-.1V16" opacity=".7"/><path fill="#fff" d="M14.184 6.212V7.22h2.928v.72h-4.788v.96h3.444v4.008H8.004V8.9h3.456v-.96H6.648v-.72h2.928V6.212H7.224V5.48h2.352V4.376l.852.024v1.08h2.916V4.376l.84.024v1.08h2.352v.732h-2.352Zm-.84 0h-2.916V7.22h2.916V6.212Zm-1.884 4.356v-.984H8.844v.984h2.616Zm3.444 0v-.984h-2.58v.984h2.58Zm-3.444.696H8.844v.96h2.616v-.96Zm.864 0v.96h2.58v-.96h-2.58Zm-5.448 3.18c.504-.104 1.144-.296 1.92-.576.784-.288 1.396-.556 1.836-.804l.336.732c-.464.248-1.096.528-1.896.84-.792.312-1.428.524-1.908.636l-.288-.828Zm6.216-1.38c.488.12 1.128.32 1.92.6.792.28 1.408.52 1.848.72l-.3.816c-.384-.224-.964-.48-1.74-.768a19.467 19.467 0 0 0-2.004-.648l.276-.72Zm15.989-.732v.768h-2.604v2.112h-.852V13.1h-3.409v-.768h1.008l-.372-.48c.744-.36 1.313-.772 1.704-1.236h-1.632V5.528h1.86c.216-.4.385-.816.505-1.248l.816.228a9.662 9.662 0 0 1-.409 1.02h2.616v5.088h-2.856c-.415.656-1.047 1.228-1.895 1.716h2.064v-1.38l.852.048v1.332h2.604Zm-9.108-2.328v.252h1.92v4.908h-.84v-4.056h-1.117c-.128 1.56-.468 2.936-1.02 4.128l-.828-.312c.409-.824.688-1.616.84-2.376.152-.768.229-1.616.229-2.544v-5.1l.816.036V8h.983V4.712l.817.036V8h.768v.84h-2.569v1.164ZM25.24 7.76V6.284h-1.537V7.76h1.537Zm.78 0h1.488V6.284H26.02V7.76Zm-2.317 2.088h1.308c.136-.352.212-.796.229-1.332h-1.537v1.332Zm3.805 0V8.516H26.02v.024c0 .488-.067.924-.203 1.308h1.692Z"/><defs><linearGradient gradientUnits="userSpaceOnUse" y2="13.238" x2="31.736" y1="-5" x1="5.442" id="a"><stop stop-color="#54ACFF"/><stop stop-color="#0084FF" offset="1"/></linearGradient><linearGradient gradientUnits="userSpaceOnUse" y2="14.77" x2="13.003" y1="-18.389" x1="31.789" id="c"><stop stop-opacity=".85" stop-color="#FFCA63"/><stop stop-opacity=".06" stop-color="#fff" offset="1"/></linearGradient></defs></svg>