<svg width="45" height="25" viewBox="0 0 45 25" fill="none" xmlns="http://www.w3.org/2000/svg">
<g id="Group 1515">
<g id="Group 155">
<g id="Rectangle 582">
<rect width="45" height="25" rx="2.5" fill="url(#paint0_linear_388_1260)"/>
<rect x="0.625" y="0.625" width="43.75" height="23.75" rx="1.875" stroke="#70D27A" stroke-opacity="0.62" stroke-width="1.25"/>
</g>
<rect id="Rectangle 583" opacity="0.1" x="4.375" y="4.375" width="36.25" height="16.25" rx="0.625" stroke="white" stroke-width="1.25"/>
</g>
<g id="Mask group" opacity="0.4">
<mask id="mask0_388_1260" style="mask-type:alpha" maskUnits="userSpaceOnUse" x="0" y="0" width="45" height="25">
<rect id="Rectangle 584" width="45" height="25" rx="2.5" fill="url(#paint1_linear_388_1260)"/>
</mask>
<g mask="url(#mask0_388_1260)">
<path id="Vector 47" d="M10.5884 31.8753L36.3972 -6.24969L52.3564 -7.91626L51.7408 34.8615L10.5884 31.8753Z" fill="url(#paint2_linear_388_1260)"/>
</g>
</g>
<path id="Vector 128" opacity="0.7" d="M5 2.5H2.625C2.55596 2.5 2.5 2.55596 2.5 2.625V5" stroke="white" stroke-width="1.25" stroke-linecap="round"/>
<path id="Vector 129" opacity="0.7" d="M40 2.5H42.375C42.444 2.5 42.5 2.55596 42.5 2.625V5" stroke="white" stroke-width="1.25" stroke-linecap="round"/>
<path id="Vector 130" opacity="0.7" d="M5 22.5H2.625C2.55596 22.5 2.5 22.444 2.5 22.375V20" stroke="white" stroke-width="1.25" stroke-linecap="round"/>
<path id="Vector 131" opacity="0.7" d="M40 22.5H42.375C42.444 22.5 42.5 22.444 42.5 22.375V20" stroke="white" stroke-width="1.25" stroke-linecap="round"/>
<g id="&#230;&#184;&#144;&#229;&#143;&#152;&#231;&#187;&#191;">
<path id="Vector" d="M29.719 10.5648L29.5372 9.4848C29.7579 9.3798 29.8748 9.2598 29.9787 9.0648C30.1994 8.7348 30.4721 8.1798 30.8098 7.4148C31.1604 6.6498 31.4591 5.8998 31.7058 5.16479L32.472 5.5248C32.2642 6.13979 31.9785 6.8448 31.6279 7.6398C31.2773 8.4198 30.9786 9.0048 30.7319 9.4098C30.9916 9.3798 31.498 9.3498 32.2512 9.3198C32.6018 8.5548 32.8875 7.9248 33.0953 7.3998L33.8485 7.8048C33.5238 8.5698 33.0953 9.4848 32.5499 10.5798C32.0175 11.6748 31.5759 12.4848 31.2513 13.0098C32.485 12.7848 33.1602 12.6798 33.3031 12.6648L33.329 13.6848C33.0174 13.7298 32.5499 13.8198 31.9266 13.9398C31.3032 14.0448 30.9007 14.1348 30.7059 14.1798L29.9787 14.3598L29.7969 13.2798C30.1215 13.1748 30.2384 13.0848 30.3942 12.8448C30.7578 12.2598 31.2123 11.4198 31.7577 10.3248C30.9656 10.4148 30.4592 10.4598 30.2644 10.4598C30.1345 10.4598 29.9527 10.4898 29.719 10.5648ZM41.2504 16.7748L40.744 17.7048C39.3025 16.6398 38.2247 15.3648 37.5105 13.8948V16.7598C37.5105 18.0498 37.1988 18.3948 35.9002 18.4848L35.2509 18.5448L34.9393 17.5248L35.7055 17.4648C36.4846 17.4048 36.6274 17.2998 36.6274 16.4898V14.6148C36.1729 15.1248 35.6275 15.6798 34.9912 16.2648C34.3679 16.8498 33.8615 17.2698 33.4589 17.5548L32.9265 16.6998C33.4199 16.3848 34.0433 15.8898 34.8094 15.1848C35.5756 14.4798 36.1859 13.8498 36.6274 13.3248V11.3898H33.329V10.4448H38.7831V9.0798H34.2121V8.14979H38.7831V6.7848H33.9653V5.8248H39.6532V10.4448H40.9907V11.3898H37.5105V11.8848C37.7312 12.5598 37.991 13.1748 38.2896 13.6998C38.9 13.1598 39.6142 12.3798 39.9778 11.8998L40.5232 12.6048C40.3284 12.8598 40.0687 13.1748 39.7311 13.5348C39.4064 13.8798 39.0818 14.1948 38.7831 14.4648C39.4194 15.3648 40.2505 16.1298 41.2504 16.7748ZM35.7314 13.4148L35.238 14.2248C35.0691 13.9698 34.8224 13.6848 34.4848 13.3548C34.1601 13.0098 33.8744 12.7548 33.6407 12.5598L34.1342 11.8548C34.3419 12.0348 34.6146 12.2898 34.9523 12.6198C35.2899 12.9348 35.5496 13.2048 35.7314 13.4148ZM33.0433 15.3048L33.1602 16.3398C32.3941 16.6398 31.1734 17.0148 29.4722 17.4798L29.3164 16.4898C29.8099 16.3698 30.4332 16.1898 31.1734 15.9498C31.9266 15.7098 32.5499 15.4998 33.0433 15.3048Z" fill="#383841"/>
<path id="Vector_2" d="M21.6245 11.4649H20.7025V7.65491H17.0925V6.64991H22.0271C21.8193 5.89991 21.6765 5.43491 21.6116 5.23991L22.5725 5.02991C22.6894 5.34491 22.8452 5.88491 23.066 6.64991H27.7798V7.65491H24.1698V11.4649H23.2478V7.65491H21.6245V11.4649ZM24.7282 9.03491L25.3125 8.31491C25.6891 8.61491 26.1566 9.04991 26.741 9.63491C27.3253 10.2049 27.7539 10.6699 28.0525 11.0449L27.4682 11.9599C27.1825 11.5399 26.754 11.0299 26.1696 10.4299C25.5982 9.81491 25.1177 9.34991 24.7282 9.03491ZM19.5468 8.37491L20.1831 9.00491C19.8585 9.45491 19.4299 9.96491 18.8975 10.5499C18.3651 11.1199 17.8327 11.6299 17.3132 12.0949L16.6899 11.2849C17.2094 10.8799 17.7288 10.3999 18.2352 9.87491C18.7547 9.34991 19.1962 8.83991 19.5468 8.37491ZM28.2733 17.5549L27.8318 18.6349C26.5462 18.3049 25.4943 17.9899 24.6502 17.6899C23.8062 17.4049 23.079 17.0749 22.4556 16.7149C21.1441 17.4499 19.4299 18.0649 16.9496 18.6799L16.5601 17.6299C18.6508 17.1949 20.287 16.6699 21.4817 16.0399C20.5987 15.3349 19.8455 14.4199 19.0533 13.0999H18.1184V12.0799H26.0917V13.0699C25.3255 14.3749 24.5074 15.3199 23.4296 16.0999C24.5204 16.6399 26.0008 17.0749 28.2733 17.5549ZM24.8061 13.0999H20.3519C21.0272 14.1799 21.6505 14.8999 22.4427 15.4849C23.3906 14.8549 24.1698 14.0599 24.8061 13.0999Z" fill="#383841"/>
<path id="Vector_3" d="M10.6585 14.615V15.17C10.4897 15.215 10.0611 15.335 9.37288 15.5V18.65H8.54178V15.68C7.54187 15.875 6.77571 16.01 6.26926 16.055L6.21731 14.945C6.72376 14.9 7.48993 14.765 8.54178 14.57V12.41H6.68481V11.375C6.99647 10.4 7.30813 9.29 7.6068 8.045H6.67182V6.98H7.85353C7.99638 6.275 8.12624 5.615 8.23012 5L9.08719 5.15L8.73657 6.98H10.6974V8.045H8.50283C8.17818 9.44 7.89249 10.535 7.63277 11.36H8.54178V8.93L9.37288 8.96V11.36H10.5806V12.41H9.37288V14.39C9.85336 14.285 10.2689 14.18 10.6455 14.06L10.6585 14.615ZM6.503 7.4L5.91864 8.315C5.74982 8 5.47712 7.64 5.11352 7.205C4.7629 6.77 4.45124 6.44 4.20451 6.215L4.80185 5.465C5.0356 5.675 5.33428 5.99 5.69788 6.395C6.06148 6.8 6.33419 7.145 6.503 7.4ZM11.996 10.22H15.4373V11.255H14.1906V18.575H13.3206V11.255H11.996C11.9441 15.2 11.7363 16.325 10.6455 18.74L9.82738 18.215C10.9182 15.965 11.087 15.005 11.113 10.97V6.515C12.3726 6.38 13.7231 6.05 14.814 5.585L15.0737 6.635C14.1906 7.01 13.0479 7.34 11.996 7.505V10.22ZM6.21731 10.85L5.60698 11.795C5.41219 11.45 5.11352 11.045 4.72394 10.58C4.34735 10.1 4.0227 9.74 3.75 9.485L4.34735 8.72C4.64602 8.99 4.99664 9.35 5.38622 9.8C5.77579 10.235 6.0485 10.595 6.21731 10.85ZM5.25636 12.74L5.69788 12.875L6.11343 12.995C6.02253 13.715 5.85371 14.645 5.59399 15.785C5.33428 16.91 5.08754 17.795 4.86678 18.425L3.98375 18.125C4.20451 17.51 4.45124 16.64 4.72394 15.5C4.99664 14.36 5.16546 13.445 5.25636 12.74Z" fill="#383841"/>
</g>
</g>
<defs>
<linearGradient id="paint0_linear_388_1260" x1="22.5" y1="1.875" x2="22.5" y2="25" gradientUnits="userSpaceOnUse">
<stop stop-color="#F5FBF4"/>
<stop offset="1" stop-color="#6ABD5F"/>
</linearGradient>
<linearGradient id="paint1_linear_388_1260" x1="6.80233" y1="-6.25" x2="39.6696" y2="16.5477" gradientUnits="userSpaceOnUse">
<stop stop-color="#54ACFF"/>
<stop offset="1" stop-color="#0084FF"/>
</linearGradient>
<linearGradient id="paint2_linear_388_1260" x1="39.7367" y1="-22.9857" x2="16.2541" y2="18.4621" gradientUnits="userSpaceOnUse">
<stop stop-color="#13FF1C" stop-opacity="0.85"/>
<stop offset="1" stop-color="white" stop-opacity="0.06"/>
</linearGradient>
</defs>
</svg>
