<svg xmlns="http://www.w3.org/2000/svg" fill="none" viewBox="0 0 36 20"><rect fill="#1A75FF" rx="2" height="20" width="36"/><rect stroke-opacity=".4" stroke="#96CCFF" rx="1.5" height="19" width="35" y=".5" x=".5"/><rect stroke="#fff" rx=".5" height="13" width="29" y="3.5" x="3.5" opacity=".1"/><g opacity=".4"><mask height="20" width="36" y="0" x="0" maskUnits="userSpaceOnUse" style="mask-type:alpha" id="b"><rect fill="url(#a)" rx="2" height="20" width="36"/></mask><g mask="url(#b)"><path fill="url(#c)" d="M8.47 25.5 29.119-5l12.767-1.333-.492 34.222L8.47 25.5Z"/></g></g><path stroke-linecap="round" stroke="#fff" d="M4 2H2.1a.1.1 0 0 0-.1.1V4M32 2h1.9a.1.1 0 0 1 .1.1V4M4 18H2.1a.1.1 0 0 1-.1-.1V16M32 18h1.9a.1.1 0 0 0 .1-.1V16" opacity=".7"/><path fill="#fff" d="M10.56 6.14h2.592v.768h.912V6.14h2.796v-.804h-2.796v-.9l-.912-.036v.936H10.56v-.9L9.648 4.4v.936h-2.76v.804h2.76v.768h.912V6.14Zm2.856 1.812a3.93 3.93 0 0 0 .192-.696l-.816-.192c-.288 1.2-.768 2.184-1.584 3.24l.744.552a10.88 10.88 0 0 0 1.164-2.1h3.576v-.804h-3.276ZM10.8 7.22l-.912-.036v3.756h.912V7.22Zm-3.084.156v3.48h.888V7.412l-.888-.036Zm8.352 3.024a12.424 12.424 0 0 0-.972-.744 22.038 22.038 0 0 0-1.032-.72l-.468.648c.276.18.612.42 1.008.744.408.312.732.588.984.816l.48-.744Zm-8.196.924v2.712H6.54v.804h10.716v-.804h-1.368v-2.712H7.872Zm2.436 2.712H8.736v-1.932h1.572v1.932Zm.816-1.932h1.524v1.932h-1.524v-1.932Zm2.328 0h1.584v1.932h-1.584v-1.932Zm13.025.228V11l-.852-.048v1.38H23.56c.852-.492 1.476-1.056 1.895-1.716h2.857V5.528h-2.616c.143-.3.276-.648.408-1.02l-.817-.228a5.91 5.91 0 0 1-.503 1.248h-1.86v5.088h1.631c-.396.468-.96.876-1.704 1.236l.372.48h-1.008v.768h3.409v2.112h.852V13.1h2.604v-.768h-2.604ZM19.972 8.84h2.569V8h-.768V4.748l-.817-.036V8h-.983V4.94l-.816-.036v5.1c0 .924-.073 1.776-.229 2.544a9.931 9.931 0 0 1-.84 2.376l.828.312c.552-1.188.889-2.568 1.02-4.128h1.116v4.056h.84v-4.908h-1.92V8.84Zm3.732-1.08V6.284h1.537V7.76h-1.537Zm2.316-1.476h1.489V7.76H26.02V6.284Zm-2.316 2.232h1.537c-.012.54-.096.984-.229 1.332h-1.308V8.516Zm2.113 1.332a3.99 3.99 0 0 0 .203-1.308v-.024h1.489v1.332h-1.692Z"/><defs><linearGradient gradientUnits="userSpaceOnUse" y2="13.238" x2="31.736" y1="-5" x1="5.442" id="a"><stop stop-color="#54ACFF"/><stop stop-color="#0084FF" offset="1"/></linearGradient><linearGradient gradientUnits="userSpaceOnUse" y2="14.77" x2="13.003" y1="-18.389" x1="31.789" id="c"><stop stop-opacity=".85" stop-color="#63B4FF"/><stop stop-opacity=".06" stop-color="#fff" offset="1"/></linearGradient></defs></svg>