<svg width="45" height="25" viewBox="0 0 45 25" fill="none" xmlns="http://www.w3.org/2000/svg">
<g id="Group 1517">
<g id="Group 155">
<rect id="Rectangle 582" x="0.625" y="0.625" width="43.75" height="23.75" rx="1.875" fill="#F6F6F6" stroke="#5C5C5C" stroke-width="1.25"/>
<rect id="Rectangle 583" opacity="0.1" x="4.375" y="4.375" width="36.25" height="16.25" rx="0.625" stroke="white" stroke-width="1.25"/>
</g>
<g id="Mask group" opacity="0.4">
<mask id="mask0_388_1312" style="mask-type:alpha" maskUnits="userSpaceOnUse" x="0" y="0" width="45" height="25">
<rect id="Rectangle 584" width="45" height="25" rx="2.5" fill="url(#paint0_linear_388_1312)"/>
</mask>
<g mask="url(#mask0_388_1312)">
<path id="Vector 47" d="M10.5884 31.8751L36.3972 -6.24994L52.3564 -7.9165L51.7408 34.8613L10.5884 31.8751Z" fill="url(#paint1_linear_388_1312)"/>
</g>
</g>
<path id="Vector 128" opacity="0.7" d="M5 2.5H2.625C2.55596 2.5 2.5 2.55596 2.5 2.625V5" stroke="#CAD2DB" stroke-width="1.25" stroke-linecap="round"/>
<path id="Vector 129" opacity="0.7" d="M40 2.5H42.375C42.444 2.5 42.5 2.55596 42.5 2.625V5" stroke="#CAD2DB" stroke-width="1.25" stroke-linecap="round"/>
<path id="Vector 130" opacity="0.7" d="M5 22.5H2.625C2.55596 22.5 2.5 22.444 2.5 22.375V20" stroke="#CAD2DB" stroke-width="1.25" stroke-linecap="round"/>
<path id="Vector 131" opacity="0.7" d="M40 22.5H42.375C42.444 22.5 42.5 22.444 42.5 22.375V20" stroke="#CAD2DB" stroke-width="1.25" stroke-linecap="round"/>
<rect id="Rectangle 1939" x="5" y="10" width="35" height="5" fill="white"/>
<g id="&#228;&#184;&#180;&#230;&#151;&#182;">
<path id="Vector" d="M34.4309 8.42509H36.3809V9.52009H34.4309V16.7651C34.3859 18.2951 34.0409 18.5951 32.0609 18.7751L31.2359 18.8351L30.8459 17.6801L31.8959 17.6201C33.1559 17.5301 33.2309 17.4101 33.2309 16.4501V9.52009H28.8509V8.42509H33.2309V5.47009L34.4309 5.51509V8.42509ZM28.2509 6.70009V17.6651H23.7959V6.70009H28.2509ZM24.8609 11.5301H27.1859V7.84009H24.8609V11.5301ZM32.1809 14.2901L31.2359 14.9201C31.0409 14.3951 30.7409 13.7351 30.3209 12.9401C29.9159 12.1451 29.5559 11.5151 29.2409 11.0501L30.1559 10.5401C30.4559 10.9751 30.8159 11.5751 31.2359 12.3701C31.6709 13.1651 31.9859 13.7951 32.1809 14.2901ZM27.1859 12.6101H24.8609V16.5251H27.1859V12.6101Z" fill="#373741"/>
<path id="Vector_2" d="M16.1705 7.27009H21.4805V8.38009H15.6455C15.1505 9.41509 14.5655 10.3901 13.9205 11.3051L12.9605 10.5701C13.5455 9.79009 14.0705 8.92009 14.5505 7.96009C15.0455 7.00009 15.4205 6.08509 15.6755 5.21509L16.8605 5.45509C16.6805 5.99509 16.4555 6.59509 16.1705 7.27009ZM12.5255 5.57509V18.8801H11.4005V5.53009L12.5255 5.57509ZM10.1105 6.82009V17.4551H9.00049V6.79009L10.1105 6.82009ZM19.2455 10.7201L18.4655 11.5451C18.2705 11.2001 17.9555 10.7801 17.5355 10.2851C17.1305 9.79009 16.7705 9.40009 16.4555 9.11509L17.2205 8.42509C17.5055 8.66509 17.8505 9.02509 18.2855 9.52009C18.7205 10.0151 19.0355 10.4051 19.2455 10.7201ZM15.1055 17.8001V18.7451H14.0705V11.6351H20.6705V18.7451H19.6205V17.8001H15.1055ZM15.1055 16.8251H16.8455V12.6251H15.1055V16.8251ZM17.8355 12.6251V16.8251H19.6205V12.6251H17.8355Z" fill="#373741"/>
</g>
</g>
<defs>
<linearGradient id="paint0_linear_388_1312" x1="6.80233" y1="-6.25" x2="39.6696" y2="16.5477" gradientUnits="userSpaceOnUse">
<stop stop-color="#54ACFF"/>
<stop offset="1" stop-color="#0084FF"/>
</linearGradient>
<linearGradient id="paint1_linear_388_1312" x1="39.7367" y1="-22.9859" x2="16.2541" y2="18.4618" gradientUnits="userSpaceOnUse">
<stop stop-color="#7F96B1" stop-opacity="0.85"/>
<stop offset="1" stop-color="white" stop-opacity="0.06"/>
</linearGradient>
</defs>
</svg>
