<svg width="45" height="25" viewBox="0 0 45 25" fill="none" xmlns="http://www.w3.org/2000/svg">
<g id="Group 3101">
<g id="Group 155">
<g id="Rectangle 582">
<rect width="45" height="25" rx="2.5" fill="#17B082"/>
<rect x="0.625" y="0.625" width="43.75" height="23.75" rx="1.875" stroke="#54DBB2" stroke-opacity="0.62" stroke-width="1.25"/>
</g>
<rect id="Rectangle 583" opacity="0.1" x="4.375" y="4.375" width="36.25" height="16.25" rx="0.625" stroke="white" stroke-width="1.25"/>
</g>
<g id="Mask group" opacity="0.4">
<mask id="mask0_1436_13597" style="mask-type:alpha" maskUnits="userSpaceOnUse" x="0" y="0" width="45" height="25">
<rect id="Rectangle 584" width="45" height="25" rx="2.5" fill="url(#paint0_linear_1436_13597)"/>
</mask>
<g mask="url(#mask0_1436_13597)">
<path id="Vector 47" d="M10.5884 31.8755L36.3972 -6.24945L52.3564 -7.91602L51.7408 34.8618L10.5884 31.8755Z" fill="url(#paint1_linear_1436_13597)"/>
</g>
</g>
<path id="Vector 128" opacity="0.7" d="M5 2.5H2.625C2.55596 2.5 2.5 2.55596 2.5 2.625V5" stroke="white" stroke-width="1.25" stroke-linecap="round"/>
<path id="Vector 129" opacity="0.7" d="M40 2.5H42.375C42.444 2.5 42.5 2.55596 42.5 2.625V5" stroke="white" stroke-width="1.25" stroke-linecap="round"/>
<path id="Vector 130" opacity="0.7" d="M5 22.5H2.625C2.55596 22.5 2.5 22.444 2.5 22.375V20" stroke="white" stroke-width="1.25" stroke-linecap="round"/>
<path id="Vector 131" opacity="0.7" d="M40 22.5H42.375C42.444 22.5 42.5 22.444 42.5 22.375V20" stroke="white" stroke-width="1.25" stroke-linecap="round"/>
<g id="&#229;&#134;&#156;&#231;&#187;&#191;">
<path id="Vector" d="M23.2705 10.8844L23.0605 9.80438C23.3155 9.69938 23.4505 9.57938 23.5705 9.38438C23.8255 9.05438 24.1405 8.49938 24.5305 7.73438C24.9355 6.96938 25.2805 6.21938 25.5655 5.48438L26.4505 5.84438C26.2105 6.45937 25.8805 7.16438 25.4755 7.95938C25.0705 8.73938 24.7255 9.32438 24.4405 9.72938C24.7405 9.69938 25.3255 9.66938 26.1955 9.63938C26.6005 8.87438 26.9305 8.24438 27.1705 7.71938L28.0405 8.12438C27.6655 8.88938 27.1705 9.80438 26.5405 10.8994C25.9255 11.9944 25.4155 12.8044 25.0405 13.3294C26.4655 13.1044 27.2455 12.9994 27.4105 12.9844L27.4405 14.0044C27.0805 14.0494 26.5405 14.1394 25.8205 14.2594C25.1005 14.3644 24.6355 14.4544 24.4105 14.4994L23.5705 14.6794L23.3605 13.5994C23.7355 13.4944 23.8705 13.4044 24.0505 13.1644C24.4705 12.5794 24.9955 11.7394 25.6255 10.6444C24.7105 10.7344 24.1255 10.7794 23.9005 10.7794C23.7505 10.7794 23.5405 10.8094 23.2705 10.8844ZM36.5905 17.0944L36.0055 18.0244C34.3405 16.9594 33.0955 15.6844 32.2705 14.2144V17.0794C32.2705 18.3694 31.9105 18.7144 30.4105 18.8044L29.6605 18.8644L29.3005 17.8444L30.1855 17.7844C31.0855 17.7244 31.2505 17.6194 31.2505 16.8094V14.9344C30.7255 15.4444 30.0955 15.9994 29.3605 16.5844C28.6405 17.1694 28.0555 17.5894 27.5905 17.8744L26.9755 17.0194C27.5455 16.7044 28.2655 16.2094 29.1505 15.5044C30.0355 14.7994 30.7405 14.1694 31.2505 13.6444V11.7094H27.4405V10.7644H33.7405V9.39938H28.4605V8.46938H33.7405V7.10438H28.1755V6.14438H34.7455V10.7644H36.2905V11.7094H32.2705V12.2044C32.5255 12.8794 32.8255 13.4944 33.1705 14.0194C33.8755 13.4794 34.7005 12.6994 35.1205 12.2194L35.7505 12.9244C35.5255 13.1794 35.2255 13.4944 34.8355 13.8544C34.4605 14.1994 34.0855 14.5144 33.7405 14.7844C34.4755 15.6844 35.4355 16.4494 36.5905 17.0944ZM30.2155 13.7344L29.6455 14.5444C29.4505 14.2894 29.1655 14.0044 28.7755 13.6744C28.4005 13.3294 28.0705 13.0744 27.8005 12.8794L28.3705 12.1744C28.6105 12.3544 28.9255 12.6094 29.3155 12.9394C29.7055 13.2544 30.0055 13.5244 30.2155 13.7344ZM27.1105 15.6244L27.2455 16.6594C26.3605 16.9594 24.9505 17.3344 22.9855 17.7994L22.8055 16.8094C23.3755 16.6894 24.0955 16.5094 24.9505 16.2694C25.8205 16.0294 26.5405 15.8194 27.1105 15.6244Z" fill="white"/>
<path id="Vector_2" d="M21.5699 16.9893L20.8349 18.0993C17.1599 16.0893 15.4649 14.2143 14.2199 10.3593C13.8149 11.1843 13.2899 11.9793 12.6149 12.7743V17.2743L15.9149 15.9393L16.1249 17.0943L14.2049 17.8143C13.4549 18.0993 12.8549 18.3393 12.4049 18.5193C12.0599 18.6543 11.7299 18.8343 11.4149 19.0293L10.9199 17.9793C11.3999 17.6943 11.5049 17.4543 11.5049 17.0793V13.9293C10.6649 14.7243 9.64488 15.5043 8.44488 16.2843L7.75488 15.2193C9.44988 14.1843 10.7849 13.1193 11.7449 12.0093C12.7049 10.8843 13.3949 9.62434 13.8149 8.21434H10.2449V10.4193H9.16488V7.16434H14.0699C14.1749 6.66934 14.2499 6.05434 14.3249 5.31934L15.5549 5.43934C15.4949 6.02434 15.4049 6.60934 15.2849 7.16434H20.4449V10.1193H19.3499V8.21434H15.0299L14.8499 8.82934C15.2249 10.3893 15.7499 11.6943 16.4249 12.7443C17.4299 12.0843 18.3449 11.3043 19.1699 10.4193L19.9349 11.3943C18.9449 12.3243 17.9849 13.0743 17.0699 13.6593C18.1499 15.0243 19.5899 16.0443 21.5699 16.9893Z" fill="white"/>
</g>
</g>
<defs>
<linearGradient id="paint0_linear_1436_13597" x1="6.80233" y1="-6.25" x2="39.6696" y2="16.5477" gradientUnits="userSpaceOnUse">
<stop stop-color="#54ACFF"/>
<stop offset="1" stop-color="#0084FF"/>
</linearGradient>
<linearGradient id="paint1_linear_1436_13597" x1="39.7367" y1="-22.9855" x2="16.2541" y2="18.4623" gradientUnits="userSpaceOnUse">
<stop stop-color="#48CAF3" stop-opacity="0.85"/>
<stop offset="1" stop-color="white" stop-opacity="0.06"/>
</linearGradient>
</defs>
</svg>
