<svg width="45" height="25" viewBox="0 0 45 25" fill="none" xmlns="http://www.w3.org/2000/svg">
<g id="Group 3100">
<g id="Group 155">
<g id="Rectangle 582">
<rect width="45" height="25" rx="2.5" fill="#FFCD1A"/>
<rect x="0.625" y="0.625" width="43.75" height="23.75" rx="1.875" stroke="#FFF4CF" stroke-opacity="0.4" stroke-width="1.25"/>
</g>
<rect id="Rectangle 583" opacity="0.1" x="4.375" y="4.375" width="36.25" height="16.25" rx="0.625" stroke="white" stroke-width="1.25"/>
</g>
<g id="Mask group" opacity="0.4">
<mask id="mask0_1436_13585" style="mask-type:alpha" maskUnits="userSpaceOnUse" x="0" y="0" width="45" height="25">
<rect id="Rectangle 584" width="45" height="25" rx="2.5" fill="url(#paint0_linear_1436_13585)"/>
</mask>
<g mask="url(#mask0_1436_13585)">
<path id="Vector 47" d="M10.5884 31.8755L36.3972 -6.24945L52.3564 -7.91602L51.7408 34.8618L10.5884 31.8755Z" fill="url(#paint1_linear_1436_13585)"/>
</g>
</g>
<path id="Vector 128" opacity="0.7" d="M5 2.5H2.625C2.55596 2.5 2.5 2.55596 2.5 2.625V5" stroke="white" stroke-width="1.25" stroke-linecap="round"/>
<path id="Vector 129" opacity="0.7" d="M40 2.5H42.375C42.444 2.5 42.5 2.55596 42.5 2.625V5" stroke="white" stroke-width="1.25" stroke-linecap="round"/>
<path id="Vector 130" opacity="0.7" d="M5 22.5H2.625C2.55596 22.5 2.5 22.444 2.5 22.375V20" stroke="white" stroke-width="1.25" stroke-linecap="round"/>
<path id="Vector 131" opacity="0.7" d="M40 22.5H42.375C42.444 22.5 42.5 22.444 42.5 22.375V20" stroke="white" stroke-width="1.25" stroke-linecap="round"/>
<g id="&#229;&#134;&#156;&#233;&#187;&#132;">
<path id="Vector" d="M35.4354 7.76473H32.4954V9.02473H36.1554V9.92473H30.1704V11.1247H34.4754V16.1347H24.7704V11.1247H29.0904V9.92473H23.0754V9.02473H26.7354V7.76473H23.7954V6.84973H26.7354V5.46973L27.8004 5.49973V6.84973H31.4454V5.46973L32.4954 5.49973V6.84973H35.4354V7.76473ZM31.4454 9.02473V7.76473H27.8004V9.02473H31.4454ZM25.8204 13.2097H29.0904V11.9797H25.8204V13.2097ZM30.1704 13.2097H33.3954V11.9797H30.1704V13.2097ZM29.0904 15.2797V14.0797H25.8204V15.2797H29.0904ZM33.3954 14.0797H30.1704V15.2797H33.3954V14.0797ZM23.7204 19.0897L23.3604 18.0547C23.9904 17.9197 24.7854 17.6797 25.7604 17.3347C26.7354 16.9747 27.5004 16.6447 28.0554 16.3297L28.4754 17.2447C27.8904 17.5597 27.1104 17.9047 26.1054 18.2947C25.1154 18.6847 24.3204 18.9547 23.7204 19.0897ZM30.7854 17.2297L31.1304 16.3297C31.7454 16.4797 32.5404 16.7347 33.5304 17.0797C34.5204 17.4247 35.2854 17.7247 35.8404 17.9797L35.4654 18.9997C34.9854 18.7147 34.2654 18.3997 33.2904 18.0397C32.3304 17.6797 31.4904 17.4097 30.7854 17.2297Z" fill="#413021"/>
<path id="Vector_2" d="M21.5699 16.9893L20.8349 18.0993C17.1599 16.0893 15.4649 14.2143 14.2199 10.3593C13.8149 11.1843 13.2899 11.9793 12.6149 12.7743V17.2743L15.9149 15.9393L16.1249 17.0943L14.2049 17.8143C13.4549 18.0993 12.8549 18.3393 12.4049 18.5193C12.0599 18.6543 11.7299 18.8343 11.4149 19.0293L10.9199 17.9793C11.3999 17.6943 11.5049 17.4543 11.5049 17.0793V13.9293C10.6649 14.7243 9.64488 15.5043 8.44488 16.2843L7.75488 15.2193C9.44988 14.1843 10.7849 13.1193 11.7449 12.0093C12.7049 10.8843 13.3949 9.62434 13.8149 8.21434H10.2449V10.4193H9.16488V7.16434H14.0699C14.1749 6.66934 14.2499 6.05434 14.3249 5.31934L15.5549 5.43934C15.4949 6.02434 15.4049 6.60934 15.2849 7.16434H20.4449V10.1193H19.3499V8.21434H15.0299L14.8499 8.82934C15.2249 10.3893 15.7499 11.6943 16.4249 12.7443C17.4299 12.0843 18.3449 11.3043 19.1699 10.4193L19.9349 11.3943C18.9449 12.3243 17.9849 13.0743 17.0699 13.6593C18.1499 15.0243 19.5899 16.0443 21.5699 16.9893Z" fill="#413021"/>
</g>
</g>
<defs>
<linearGradient id="paint0_linear_1436_13585" x1="6.80233" y1="-6.25" x2="39.6696" y2="16.5477" gradientUnits="userSpaceOnUse">
<stop stop-color="#54ACFF"/>
<stop offset="1" stop-color="#0084FF"/>
</linearGradient>
<linearGradient id="paint1_linear_1436_13585" x1="39.7367" y1="-22.9855" x2="16.2541" y2="18.4623" gradientUnits="userSpaceOnUse">
<stop stop-color="#FFCA63" stop-opacity="0.85"/>
<stop offset="1" stop-color="white" stop-opacity="0.06"/>
</linearGradient>
</defs>
</svg>
