<svg xmlns="http://www.w3.org/2000/svg" fill="none" viewBox="0 0 36 20"><rect fill="#fff" rx="2" height="20" width="36"/><rect stroke-opacity=".58" stroke="#DBE0E8" rx="1.5" height="19" width="35" y=".5" x=".5"/><rect stroke="#fff" rx=".5" height="13" width="29" y="3.5" x="3.5" opacity=".1"/><g opacity=".4"><mask height="20" width="36" y="0" x="0" maskUnits="userSpaceOnUse" style="mask-type:alpha" id="b"><rect fill="url(#a)" rx="2" height="20" width="36"/></mask><g mask="url(#b)"><path fill="url(#c)" d="M8.47 25.5 29.119-5l12.767-1.333-.492 34.222L8.47 25.5Z"/></g></g><path fill="#5C5F65" d="M16.752 6.452H15.06v5.124h2.148v.804H6.54v-.804h2.148V6.452H6.996V5.66h1.692V4.4l.888.036V5.66h4.584V4.4l.9.036V5.66h1.692v.792ZM9.576 7.64h4.584V6.452H9.576V7.64Zm4.584 1.956V8.432H9.576v1.164h4.584Zm0 1.98V10.4H9.576v1.176h4.584Zm-7.008 3.72-.384-.78c.48-.156 1.116-.432 1.908-.816.792-.396 1.392-.732 1.812-1.02l.408.732c-.42.288-1.02.624-1.824 1.02-.792.396-1.428.684-1.92.864Zm5.628-1.812.348-.768c.54.192 1.2.468 2.004.84.804.36 1.404.66 1.8.9l-.36.84c-.408-.3-1.008-.636-1.8-1.008a20.967 20.967 0 0 0-1.992-.804Zm15.316-1.212.852.276-.06.6a5.472 5.472 0 0 1-.132.864c-.108.492-.515.744-1.62.78-.36.012-.912.024-1.643.024-.732 0-1.284-.012-1.644-.024-1.177-.048-1.584-.36-1.584-1.548V9.14l-1.032.336-.192-.84 1.224-.396V5.588l.851.024v2.364l1.537-.492V4.388l.852.024v2.796l2.616-.828-.048 1.416a112.54 112.54 0 0 1-.085 2.724c-.06.9-.395 1.176-1.392 1.26l-.468.048-.252-.84.576-.072c.576-.072.66-.168.684-.78l.097-2.604-1.729.564v4.764h-.852V8.372l-1.536.492v4.116c0 .816.133.936 1.032.984.576.012 1.009.024 1.308.024.3 0 .733-.012 1.309-.024.828-.036 1.14-.168 1.2-.516a6.5 6.5 0 0 0 .131-1.176ZM20.85 4.568l.9.204a21.129 21.129 0 0 1-.996 2.616v7.752h-.829V8.912c-.335.54-.707 1.068-1.127 1.608l-.697-.588a15.576 15.576 0 0 0 2.748-5.364Z"/><defs><linearGradient gradientUnits="userSpaceOnUse" y2="13.238" x2="31.736" y1="-5" x1="5.442" id="a"><stop stop-color="#54ACFF"/><stop stop-color="#0084FF" offset="1"/></linearGradient><linearGradient gradientUnits="userSpaceOnUse" y2="14.77" x2="13.003" y1="-18.389" x1="31.789" id="c"><stop stop-opacity=".85" stop-color="#fff"/><stop stop-opacity=".06" stop-color="#fff" offset="1"/></linearGradient></defs></svg>