<svg xmlns="http://www.w3.org/2000/svg" fill="none" viewBox="0 0 36 20"><rect fill="#373C43" rx="2" height="20" width="36"/><rect stroke-opacity=".4" stroke="#7E8F9F" rx="1.5" height="19" width="35" y=".5" x=".5"/><rect stroke="#fff" rx=".5" height="13" width="29" y="3.5" x="3.5" opacity=".1"/><g opacity=".4"><mask height="20" width="36" y="0" x="0" maskUnits="userSpaceOnUse" style="mask-type:alpha" id="b"><rect fill="url(#a)" rx="2" height="20" width="36"/></mask><g mask="url(#b)"><path fill="url(#c)" d="M8.47 25.5 29.119-5l12.767-1.333-.492 34.222-32.922-2.39Z"/></g></g><path stroke-linecap="round" stroke="#fff" d="M4 2H2.1a.1.1 0 0 0-.1.1V4M32 2h1.9a.1.1 0 0 1 .1.1V4M4 18H2.1a.1.1 0 0 1-.1-.1V16M32 18h1.9a.1.1 0 0 0 .1-.1V16" opacity=".7"/><path fill="#fff" d="M16.356 10.796v-.78h-4.044V9.008h3.744v-4.2H7.692v4.2h3.792v1.008H7.392v.78h4.092v1.032h-4.74v.78h10.392v-.78h-4.824v-1.032h4.044Zm-4.872-5.208v2.64h-2.94v-2.64h2.94Zm.828 0h2.892v2.64h-2.892v-2.64Zm1.14 2.436c.168-.18.372-.456.624-.828.252-.372.456-.696.6-.96l-.624-.456a8.41 8.41 0 0 1-.588.924c-.252.36-.468.636-.648.816l.636.504ZM9.024 6.236c.18.228.396.528.636.9s.42.684.528.936l.636-.54a8.51 8.51 0 0 0-.552-.876 8.39 8.39 0 0 0-.624-.852l-.624.432Zm-1.476 9.132c.192-.276.408-.648.648-1.104.252-.444.432-.828.552-1.14l-.768-.288c-.12.288-.312.636-.564 1.056-.252.42-.48.756-.672 1.008l.804.468Zm7.332-2.088c.204.276.432.612.66 1.008.24.408.42.756.54 1.056l.756-.552a7.37 7.37 0 0 0-.552-.936c-.252-.372-.48-.696-.696-.972l-.708.396Zm-2.436-.024c.132.264.276.588.432.96.156.384.264.72.324.996l.828-.36a6.945 6.945 0 0 0-.36-.9 9.29 9.29 0 0 0-.468-.972l-.756.276Zm-2.46-.036c.084.252.168.576.252.972.096.396.168.756.204 1.056l.876-.264a8.812 8.812 0 0 0-.228-.972 14.313 14.313 0 0 0-.3-.972l-.804.18Zm16.492-.888V11l-.851-.048v1.38H23.56c.852-.492 1.476-1.056 1.895-1.716h2.857V5.528h-2.616c.143-.3.276-.648.408-1.02l-.817-.228a5.91 5.91 0 0 1-.503 1.248h-1.86v5.088h1.631c-.396.468-.96.876-1.704 1.236l.372.48h-1.008v.768h3.409v2.112h.852V13.1h2.604v-.768h-2.604ZM19.974 8.84h2.568V8h-.768V4.748l-.817-.036V8h-.983V4.94l-.816-.036v5.1c0 .924-.073 1.776-.229 2.544a9.931 9.931 0 0 1-.84 2.376l.828.312c.552-1.188.889-2.568 1.02-4.128h1.116v4.056h.84v-4.908h-1.92V8.84Zm3.732-1.08V6.284h1.536V7.76h-1.537Zm2.316-1.476h1.488V7.76H26.02V6.284Zm-2.317 2.232h1.537c-.012.54-.096.984-.229 1.332h-1.308V8.516Zm2.113 1.332a3.99 3.99 0 0 0 .203-1.308v-.024h1.489v1.332h-1.692Z"/><defs><linearGradient gradientUnits="userSpaceOnUse" y2="13.238" x2="31.736" y1="-5" x1="5.442" id="a"><stop stop-color="#54ACFF"/><stop stop-color="#0084FF" offset="1"/></linearGradient><linearGradient gradientUnits="userSpaceOnUse" y2="14.769" x2="13.003" y1="-18.389" x1="31.789" id="c"><stop stop-opacity=".85" stop-color="#738596"/><stop stop-opacity=".06" stop-color="#fff" offset="1"/></linearGradient></defs></svg>