<svg width="45" height="25" viewBox="0 0 45 25" fill="none" xmlns="http://www.w3.org/2000/svg">
<g id="Group 1514">
<g id="Group 155">
<g id="Rectangle 582">
<rect width="45" height="25" rx="2.5" fill="url(#paint0_linear_388_1220)"/>
<rect x="0.625" y="0.625" width="43.75" height="23.75" rx="1.875" stroke="#30CDFF" stroke-opacity="0.25" stroke-width="1.25"/>
</g>
<rect id="Rectangle 583" opacity="0.1" x="4.375" y="4.375" width="36.25" height="16.25" rx="0.625" stroke="white" stroke-width="1.25"/>
</g>
<g id="Mask group" opacity="0.4">
<mask id="mask0_388_1220" style="mask-type:alpha" maskUnits="userSpaceOnUse" x="0" y="0" width="45" height="25">
<rect id="Rectangle 584" width="45" height="25" rx="2.5" fill="url(#paint1_linear_388_1220)"/>
</mask>
<g mask="url(#mask0_388_1220)">
<path id="Vector 47" d="M10.5884 31.8753L36.3972 -6.24969L52.3564 -7.91626L51.7408 34.8615L10.5884 31.8753Z" fill="url(#paint2_linear_388_1220)"/>
</g>
</g>
<path id="Vector 128" opacity="0.7" d="M5 2.5H2.625C2.55596 2.5 2.5 2.55596 2.5 2.625V5" stroke="white" stroke-width="1.25" stroke-linecap="round"/>
<path id="Vector 129" opacity="0.7" d="M40 2.5H42.375C42.444 2.5 42.5 2.55596 42.5 2.625V5" stroke="white" stroke-width="1.25" stroke-linecap="round"/>
<path id="Vector 130" opacity="0.7" d="M5 22.5H2.625C2.55596 22.5 2.5 22.444 2.5 22.375V20" stroke="white" stroke-width="1.25" stroke-linecap="round"/>
<path id="Vector 131" opacity="0.7" d="M40 22.5H42.375C42.444 22.5 42.5 22.444 42.5 22.375V20" stroke="white" stroke-width="1.25" stroke-linecap="round"/>
<g id="&#232;&#147;&#157;&#231;&#153;&#189;&#230;&#184;&#144;&#229;&#143;&#152;">
<path id="Vector" d="M36.2605 11.5101H35.5686V7.70007H32.8595V6.69507H36.5626C36.4067 5.94507 36.2995 5.48007 36.2508 5.28507L36.9719 5.07507C37.0596 5.39007 37.1766 5.93007 37.3422 6.69507H40.8797V7.70007H38.1706V11.5101H37.4787V7.70007H36.2605V11.5101ZM38.5896 9.08007L39.0281 8.36007C39.3107 8.66007 39.6616 9.09507 40.1001 9.68007C40.5386 10.2501 40.8602 10.7151 41.0843 11.0901L40.6458 12.0051C40.4314 11.5851 40.1098 11.0751 39.6713 10.4751C39.2425 9.86007 38.882 9.39507 38.5896 9.08007ZM34.7013 8.42007L35.1788 9.05007C34.9352 9.50007 34.6136 10.0101 34.2141 10.5951C33.8145 11.1651 33.415 11.6751 33.0252 12.1401L32.5574 11.3301C32.9472 10.9251 33.337 10.4451 33.7171 9.92007C34.1069 9.39507 34.4382 8.88507 34.7013 8.42007ZM41.25 17.6001L40.9187 18.6801C39.9539 18.3501 39.1646 18.0351 38.5311 17.7351C37.8977 17.4501 37.352 17.1201 36.8842 16.7601C35.9 17.4951 34.6136 18.1101 32.7523 18.7251L32.46 17.6751C34.0289 17.2401 35.2568 16.7151 36.1533 16.0851C35.4907 15.3801 34.9255 14.4651 34.331 13.1451H33.6294V12.1251H39.6128V13.1151C39.0379 14.4201 38.4239 15.3651 37.6151 16.1451C38.4337 16.6851 39.5446 17.1201 41.25 17.6001ZM38.6481 13.1451H35.3055C35.8123 14.2251 36.28 14.9451 36.8745 15.5301C37.5859 14.9001 38.1706 14.1051 38.6481 13.1451Z" fill="#383841"/>
<path id="Vector_2" d="M28.032 14.6602V15.2152C27.9053 15.2602 27.5838 15.3802 27.0673 15.5452V18.6952H26.4436V15.7252C25.6932 15.9202 25.1183 16.0552 24.7382 16.1002L24.6992 14.9902C25.0793 14.9452 25.6542 14.8102 26.4436 14.6152V12.4552H25.05V11.4202C25.2839 10.4452 25.5178 9.33517 25.7419 8.09017H25.0403V7.02517H25.9271C26.0343 6.32017 26.1317 5.66017 26.2097 5.04517L26.8529 5.19517L26.5898 7.02517H28.0613V8.09017H26.4143C26.1707 9.48517 25.9563 10.5802 25.7614 11.4052H26.4436V8.97517L27.0673 9.00517V11.4052H27.9736V12.4552H27.0673V14.4352C27.4278 14.3302 27.7397 14.2252 28.0223 14.1052L28.032 14.6602ZM24.9136 7.44517L24.4751 8.36017C24.3484 8.04517 24.1438 7.68517 23.8709 7.25017C23.6078 6.81517 23.3739 6.48517 23.1887 6.26017L23.637 5.51017C23.8124 5.72017 24.0366 6.03517 24.3094 6.44017C24.5823 6.84517 24.7869 7.19017 24.9136 7.44517ZM29.0358 10.2652H31.6182V11.3002H30.6827V18.6202H30.0298V11.3002H29.0358C28.9968 15.2452 28.8409 16.3702 28.0223 18.7852L27.4083 18.2602C28.2269 16.0102 28.3536 15.0502 28.3731 11.0152V6.56017C29.3184 6.42517 30.3319 6.09517 31.1505 5.63017L31.3454 6.68017C30.6827 7.05517 29.8251 7.38517 29.0358 7.55017V10.2652ZM24.6992 10.8952L24.2412 11.8402C24.095 11.4952 23.8709 11.0902 23.5785 10.6252C23.2959 10.1452 23.0523 9.78517 22.8477 9.53017L23.2959 8.76517C23.5201 9.03517 23.7832 9.39517 24.0755 9.84517C24.3679 10.2802 24.5725 10.6402 24.6992 10.8952ZM23.9781 12.7852L24.3094 12.9202L24.6213 13.0402C24.553 13.7602 24.4264 14.6902 24.2315 15.8302C24.0366 16.9552 23.8514 17.8402 23.6857 18.4702L23.0231 18.1702C23.1887 17.5552 23.3739 16.6852 23.5785 15.5452C23.7832 14.4052 23.9099 13.4902 23.9781 12.7852Z" fill="#383841"/>
<path id="Vector_3" d="M17.505 7.19H21.0035V18.695H20.2824V17.78H15.0493V18.725H14.3281V7.19H16.628C16.8521 6.545 17.0957 5.585 17.2029 5L18.0118 5.21C17.9046 5.735 17.6999 6.575 17.505 7.19ZM15.0493 11.84H20.2824V8.27H15.0493V11.84ZM20.2824 12.92H15.0493V16.685H20.2824V12.92Z" fill="#383841"/>
<path id="Vector_4" d="M7.0146 7.40022V8.36022H6.27397V7.40022H4.03261V6.39522H6.27397V5.22522L7.0146 5.27022V6.39522H9.11953V5.22522L9.86016 5.27022V6.39522H12.1308V7.40022H9.86016V8.36022H9.11953V7.40022H7.0146ZM9.33392 9.66522H11.9943V10.6702H9.0903C8.83692 11.6002 8.52508 12.4702 8.14502 13.2952L7.54083 12.6052C8.20349 11.2852 8.5933 10.0552 8.82718 8.55522L9.48984 8.79522C9.45086 9.11022 9.40214 9.39522 9.33392 9.66522ZM7.2095 8.75022V13.4002H6.46887V8.70522L7.2095 8.75022ZM4.70502 8.94522L5.42615 8.99022V13.2952H4.70502V8.94522ZM11.4876 12.7252L11.0978 13.6552C10.8931 13.3702 10.63 13.0252 10.2987 12.6352C9.9771 12.2302 9.70423 11.9302 9.4801 11.7052L9.86016 10.8952C10.1038 11.1352 10.3766 11.4352 10.6982 11.7952C11.0198 12.1402 11.2829 12.4552 11.4876 12.7252ZM4.8317 13.8802H11.3414V17.2702H12.4523V18.2752H3.75V17.2702H4.8317V13.8802ZM6.80995 17.2702V14.8552H5.53335V17.2702H6.80995ZM7.47261 14.8552V17.2702H8.71024V14.8552H7.47261ZM9.36316 14.8552V17.2702H10.6495V14.8552H9.36316Z" fill="#383841"/>
</g>
</g>
<defs>
<linearGradient id="paint0_linear_388_1220" x1="22.5" y1="0" x2="22.5" y2="25" gradientUnits="userSpaceOnUse">
<stop offset="0.26" stop-color="white"/>
<stop offset="1" stop-color="#07C4FF"/>
</linearGradient>
<linearGradient id="paint1_linear_388_1220" x1="6.80233" y1="-6.25" x2="39.6696" y2="16.5477" gradientUnits="userSpaceOnUse">
<stop stop-color="#54ACFF"/>
<stop offset="1" stop-color="#0084FF"/>
</linearGradient>
<linearGradient id="paint2_linear_388_1220" x1="39.7367" y1="-22.9857" x2="16.2541" y2="18.4621" gradientUnits="userSpaceOnUse">
<stop stop-color="#2DE6FF" stop-opacity="0.85"/>
<stop offset="1" stop-color="white" stop-opacity="0.06"/>
</linearGradient>
</defs>
</svg>
