<svg xmlns="http://www.w3.org/2000/svg" fill="none" viewBox="0 0 36 20"><rect stroke="#FFDA78" fill="#FFB800" rx="1.5" height="19" width="35" y=".5" x=".5"/><rect stroke="#fff" rx=".5" height="13" width="29" y="3.5" x="3.5" opacity=".1"/><g opacity=".4"><mask height="20" width="36" y="0" x="0" maskUnits="userSpaceOnUse" style="mask-type:alpha" id="b"><rect fill="url(#a)" rx="2" height="20" width="36"/></mask><g mask="url(#b)"><path fill="url(#c)" d="M8.47 25.5 29.119-5l12.767-1.333-.492 34.222L8.47 25.5Z"/></g></g><rect fill="#14C25A" rx="1" height="14" width="14" y="3" x="18"/><path stroke-linecap="round" stroke="#fff" d="M4 2H2.1a.1.1 0 0 0-.1.1V4M32 2h1.9a.1.1 0 0 1 .1.1V4M4 18H2.1a.1.1 0 0 1-.1-.1V16M32 18h1.9a.1.1 0 0 0 .1-.1V16" opacity=".7"/><path fill="#fff" d="M15.536 6.212h-2.352V7.22h2.928v.72h-4.788v.96h3.444v4.008H7.004V8.9h3.456v-.96H5.648v-.72h2.928V6.212H6.224V5.48h2.352V4.376l.852.024v1.08h2.916V4.376l.84.024v1.08h2.352v.732ZM12.344 7.22V6.212H9.428V7.22h2.916Zm-4.5 3.348h2.616v-.984H7.844v.984Zm3.48 0h2.58v-.984h-2.58v.984Zm-.864 1.656v-.96H7.844v.96h2.616Zm3.444-.96h-2.58v.96h2.58v-.96Zm-7.74 4.008-.288-.828c.504-.108 1.14-.3 1.92-.576.78-.288 1.392-.552 1.836-.804l.336.732c-.468.252-1.092.528-1.896.84-.792.312-1.428.528-1.908.636Zm5.652-1.488.276-.72c.492.12 1.128.324 1.92.6.792.276 1.404.516 1.848.72l-.3.816c-.384-.228-.96-.48-1.74-.768a19.785 19.785 0 0 0-2.004-.648Zm7.8-5.076-.168-.864a.77.77 0 0 0 .409-.336c.204-.264.456-.708.768-1.32.323-.612.6-1.212.828-1.8l.707.288a19.32 19.32 0 0 1-.78 1.692c-.323.624-.6 1.092-.828 1.416.24-.024.709-.048 1.404-.072a31.84 31.84 0 0 0 .78-1.536l.697.324a39 39 0 0 1-1.2 2.22c-.492.876-.9 1.524-1.2 1.944 1.14-.18 1.764-.264 1.895-.276l.024.816c-.288.036-.72.108-1.296.204-.575.084-.947.156-1.127.192l-.672.144-.168-.864c.3-.084.407-.156.552-.348.335-.468.756-1.14 1.26-2.016-.733.072-1.2.108-1.38.108-.12 0-.288.024-.505.084Zm10.657 4.968-.468.744c-1.332-.852-2.328-1.872-2.988-3.048v2.292c0 1.032-.288 1.308-1.489 1.38l-.6.048-.288-.816.708-.048c.72-.048.852-.132.852-.78v-1.5c-.42.408-.924.852-1.512 1.32-.575.468-1.043.804-1.415 1.032l-.492-.684c.456-.252 1.032-.648 1.74-1.212A18.233 18.233 0 0 0 26 10.916V9.368h-3.049v-.756h5.04V7.52h-4.224v-.744h4.224V5.684h-4.451v-.768h5.256v3.696h1.235v.756h-3.215v.396c.203.54.444 1.032.72 1.452a12.545 12.545 0 0 0 1.56-1.44l.503.564c-.18.204-.42.456-.732.744-.3.276-.6.528-.875.744.588.72 1.356 1.332 2.28 1.848Zm-5.1-2.688-.456.648a4.706 4.706 0 0 0-.697-.696c-.3-.276-.564-.48-.78-.636l.457-.564c.192.144.444.348.756.612.312.252.552.468.72.636ZM22.688 12.5l.108.828c-.709.24-1.837.54-3.409.912l-.144-.792a27.59 27.59 0 0 0 1.716-.432 31.41 31.41 0 0 0 1.729-.516Z"/><defs><linearGradient gradientUnits="userSpaceOnUse" y2="13.238" x2="31.736" y1="-5" x1="5.442" id="a"><stop stop-color="#54ACFF"/><stop stop-color="#0084FF" offset="1"/></linearGradient><linearGradient gradientUnits="userSpaceOnUse" y2="14.77" x2="13.003" y1="-18.389" x1="31.789" id="c"><stop stop-opacity=".85" stop-color="#48CAF3"/><stop stop-opacity=".06" stop-color="#fff" offset="1"/></linearGradient></defs></svg>