<svg xmlns="http://www.w3.org/2000/svg" fill="none" viewBox="0 0 36 20"><rect fill="#14C25A" rx="2" height="20" width="36"/><rect stroke-opacity=".62" stroke="#85F090" rx="1.5" height="19" width="35" y=".5" x=".5"/><rect stroke="#fff" rx=".5" height="13" width="29" y="3.5" x="3.5" opacity=".1"/><g opacity=".4"><mask height="20" width="36" y="0" x="0" maskUnits="userSpaceOnUse" style="mask-type:alpha" id="b"><rect fill="url(#a)" rx="2" height="20" width="36"/></mask><g mask="url(#b)"><path fill="url(#c)" d="M8.47 25.5 29.119-5l12.767-1.333-.492 34.222L8.47 25.5Z"/></g></g><path stroke-linecap="round" stroke="#fff" d="M4 2H2.1a.1.1 0 0 0-.1.1V4M32 2h1.9a.1.1 0 0 1 .1.1V4M4 18H2.1a.1.1 0 0 1-.1-.1V16M32 18h1.9a.1.1 0 0 0 .1-.1V16" opacity=".7"/><path fill="#fff" d="M6.804 8.708c.216-.06.384-.084.504-.084.18 0 .648-.036 1.38-.108-.504.876-.924 1.548-1.26 2.016-.144.192-.252.264-.552.348l.168.864.672-.144c.18-.036.552-.108 1.128-.192a38.486 38.486 0 0 1 1.296-.204l-.024-.816c-.132.012-.756.096-1.896.276.3-.42.708-1.068 1.2-1.944a39 39 0 0 0 1.2-2.22l-.696-.324c-.192.42-.456.924-.78 1.536a26.55 26.55 0 0 0-1.404.072c.228-.324.504-.792.828-1.416.324-.636.588-1.2.78-1.692l-.708-.288a16.958 16.958 0 0 1-.828 1.8c-.312.612-.564 1.056-.768 1.32a.77.77 0 0 1-.408.336l.168.864Zm10.656 4.968c-.924-.516-1.692-1.128-2.28-1.848.276-.216.576-.468.876-.744.312-.288.552-.54.732-.744l-.504-.564a12.545 12.545 0 0 1-1.56 1.44 7.445 7.445 0 0 1-.72-1.452v-.396h3.216v-.756h-1.236V4.916h-5.256v.768h4.452v1.092h-4.224v.744h4.224v1.092h-5.04v.756h3.048v1.548c-.408.42-.972.924-1.68 1.488s-1.284.96-1.74 1.212l.492.684c.372-.228.84-.564 1.416-1.032a20.501 20.501 0 0 0 1.512-1.32v1.5c0 .648-.132.732-.852.78l-.708.048.288.816.6-.048c1.2-.072 1.488-.348 1.488-1.38v-2.292c.66 1.176 1.656 2.196 2.988 3.048l.468-.744Zm-5.1-2.688a9.353 9.353 0 0 0-.72-.636 17.454 17.454 0 0 0-.756-.612l-.456.564c.216.156.48.36.78.636.312.264.54.492.696.696l.456-.648ZM9.876 12.5a31.41 31.41 0 0 1-1.728.516 27.59 27.59 0 0 1-1.716.432l.144.792c1.572-.372 2.7-.672 3.408-.912l-.108-.828Zm16.6-.168V11l-.851-.048v1.38H23.56c.852-.492 1.476-1.056 1.895-1.716h2.857V5.528h-2.616c.143-.3.276-.648.408-1.02l-.817-.228a5.91 5.91 0 0 1-.503 1.248h-1.86v5.088h1.631c-.396.468-.96.876-1.704 1.236l.372.48h-1.008v.768h3.409v2.112h.852V13.1h2.604v-.768h-2.604ZM19.974 8.84h2.568V8h-.768V4.748l-.817-.036V8h-.983V4.94l-.816-.036v5.1c0 .924-.073 1.776-.229 2.544a9.931 9.931 0 0 1-.84 2.376l.828.312c.552-1.188.889-2.568 1.02-4.128h1.116v4.056h.84v-4.908h-1.92V8.84Zm3.732-1.08V6.284h1.536V7.76h-1.537Zm2.316-1.476h1.488V7.76H26.02V6.284Zm-2.317 2.232h1.537c-.012.54-.096.984-.229 1.332h-1.308V8.516Zm2.113 1.332a3.99 3.99 0 0 0 .203-1.308v-.024h1.489v1.332h-1.692Z"/><defs><linearGradient gradientUnits="userSpaceOnUse" y2="13.238" x2="31.736" y1="-5" x1="5.442" id="a"><stop stop-color="#54ACFF"/><stop stop-color="#0084FF" offset="1"/></linearGradient><linearGradient gradientUnits="userSpaceOnUse" y2="14.77" x2="13.003" y1="-18.389" x1="31.789" id="c"><stop stop-opacity=".85" stop-color="#48CAF3"/><stop stop-opacity=".06" stop-color="#fff" offset="1"/></linearGradient></defs></svg>